<svg xmlns="http://www.w3.org/2000/svg" width="256" height="256" viewBox="0 0 256 256">
  <defs>
    <linearGradient id="bg" x1="0" y1="0" x2="0.5" y2="1">
      <stop offset="0" stop-color="#3a6cf4"/>
      <stop offset="1" stop-color="#14b8c4"/>
    </linearGradient>
    <filter id="shadow" x="-20%" y="-20%" width="140%" height="150%">
      <feDropShadow dx="0" dy="6" stdDeviation="7" flood-color="#062a4d" flood-opacity="0.35"/>
    </filter>
  </defs>

  <!-- Tile -->
  <rect x="8" y="8" width="240" height="240" rx="56" fill="url(#bg)"/>
  <rect x="8" y="8" width="240" height="240" rx="56" fill="none" stroke="#ffffff" stroke-opacity="0.18" stroke-width="2"/>

  <!-- Panel -->
  <g filter="url(#shadow)">
    <rect x="30" y="44" width="196" height="168" rx="22" fill="#ffffff"/>
  </g>

  <!-- Search row: magnifier, typed text + cursor, prefix chips -->
  <circle cx="58" cy="72" r="9" fill="none" stroke="#3584e4" stroke-width="4"/>
  <path d="M65 79 L72 86" stroke="#3584e4" stroke-width="4.5" stroke-linecap="round"/>
  <rect x="84" y="66" width="44" height="11" rx="5.5" fill="#1e1e22" fill-opacity="0.85"/>
  <rect x="132" y="62" width="3" height="20" rx="1.5" fill="#3584e4"/>
  <rect x="150" y="63" width="18" height="18" rx="6" fill="#e3ecfd"/>
  <text x="159" y="77" font-family="Cantarell, Ubuntu, sans-serif" font-size="13" font-weight="700" fill="#1c71d8" text-anchor="middle">@</text>
  <rect x="172" y="63" width="18" height="18" rx="6" fill="#e3ecfd"/>
  <text x="181" y="77" font-family="Cantarell, Ubuntu, sans-serif" font-size="13" font-weight="700" fill="#1c71d8" text-anchor="middle">/</text>
  <rect x="194" y="63" width="18" height="18" rx="6" fill="#e3ecfd"/>
  <text x="203" y="77" font-family="Cantarell, Ubuntu, sans-serif" font-size="13" font-weight="700" fill="#1c71d8" text-anchor="middle">!</text>

  <rect x="42" y="96" width="172" height="2" rx="1" fill="#1e1e22" fill-opacity="0.08"/>

  <!-- Results: first one selected -->
  <rect x="40" y="106" width="176" height="32" rx="10" fill="#3584e4" fill-opacity="0.16"/>
  <rect x="48" y="112" width="20" height="20" rx="6" fill="#3584e4"/>
  <rect x="76" y="116" width="70" height="6" rx="3" fill="#1e1e22" fill-opacity="0.8"/>
  <rect x="76" y="126" width="46" height="4" rx="2" fill="#1e1e22" fill-opacity="0.35"/>

  <rect x="48" y="148" width="20" height="20" rx="6" fill="#33d17a"/>
  <rect x="76" y="152" width="58" height="6" rx="3" fill="#1e1e22" fill-opacity="0.7"/>
  <rect x="76" y="162" width="38" height="4" rx="2" fill="#1e1e22" fill-opacity="0.3"/>

  <rect x="48" y="180" width="20" height="20" rx="6" fill="#ffa348"/>
  <rect x="76" y="184" width="64" height="6" rx="3" fill="#1e1e22" fill-opacity="0.7"/>
  <rect x="76" y="194" width="42" height="4" rx="2" fill="#1e1e22" fill-opacity="0.3"/>
</svg>
